<svg xmlns="http://www.w3.org/2000/svg" width="140" height="39" fill="none" viewBox="0 0 140 39"><path fill="#fff" d="M61.135 10.541C62.646 10.541 63.918 10.727 64.925 11.098 65.959 11.469 66.78 11.999 67.39 12.688 67.999 13.377 68.45 14.198 68.715 15.152 68.98 16.106 69.112 17.166 69.112 18.332V30.257C68.423 30.416 67.363 30.602 65.932 30.814 64.527 31.026 62.911 31.132 61.135 31.132 59.969 31.132 58.883 31.026 57.902 30.787 56.922 30.575 56.1 30.204 55.411 29.701 54.722 29.197 54.192 28.535 53.795 27.74 53.397 26.945 53.212 25.938 53.212 24.772 53.212 23.632 53.424 22.705 53.874 21.91 54.325 21.141 54.908 20.505 55.65 20.002 56.392 19.525 57.266 19.154 58.273 18.942 59.254 18.73 60.287 18.624 61.374 18.624 61.877 18.624 62.407 18.65 62.964 18.73 63.521 18.783 64.103 18.889 64.74 19.048V18.306C64.74 17.776 64.686 17.272 64.554 16.795 64.421 16.318 64.21 15.894 63.892 15.523 63.574 15.152 63.176 14.887 62.646 14.675 62.142 14.463 61.48 14.384 60.711 14.384 59.651 14.384 58.697 14.463 57.823 14.622 56.948 14.781 56.233 14.94 55.676 15.152L55.12 11.469C55.703 11.257 56.524 11.071 57.637 10.859 58.697 10.647 59.863 10.541 61.135 10.541ZM61.506 27.501C62.911 27.501 63.971 27.422 64.713 27.289V22.254C64.475 22.175 64.104 22.095 63.627 22.042 63.15 21.963 62.619 21.936 62.036 21.936 61.533 21.936 61.029 21.963 60.526 22.042 60.022 22.122 59.545 22.254 59.148 22.466 58.724 22.678 58.406 22.943 58.141 23.314 57.902 23.685 57.77 24.136 57.77 24.692 57.77 25.779 58.114 26.521 58.777 26.918 59.439 27.289 60.34 27.501 61.506 27.501ZM78.997 5.294C78.997 6.142 78.732 6.831 78.175 7.334 77.619 7.838 76.983 8.076 76.214 8.076 75.446 8.076 74.783 7.838 74.227 7.334 73.67 6.831 73.405 6.168 73.405 5.294 73.405 4.419 73.67 3.73 74.227 3.227 74.783 2.723 75.446 2.485 76.214 2.485 76.956 2.485 77.619 2.723 78.175 3.227 78.705 3.73 78.997 4.419 78.997 5.294ZM78.493 30.708H73.935V11.044H78.493V30.708ZM89.358 30.708C88.112 28.137 86.814 25.169 85.489 21.804 84.164 18.465 82.971 14.86 81.885 11.044H86.734C86.999 12.157 87.344 13.323 87.688 14.595 88.059 15.867 88.43 17.14 88.854 18.385 89.278 19.657 89.702 20.876 90.126 22.069 90.577 23.261 90.974 24.321 91.345 25.275 91.716 24.321 92.114 23.261 92.564 22.069 92.988 20.876 93.412 19.657 93.836 18.385 94.26 17.113 94.658 15.841 95.029 14.595 95.4 13.323 95.744 12.157 96.009 11.044H100.7C99.613 14.887 98.421 18.465 97.096 21.804 95.771 25.143 94.472 28.111 93.227 30.708H89.358ZM101.76 20.955C101.76 19.233 102.025 17.722 102.528 16.397 103.032 15.099 103.721 14.012 104.569 13.138 105.417 12.263 106.397 11.627 107.51 11.177 108.623 10.726 109.736 10.514 110.902 10.514 113.605 10.514 115.725 11.362 117.236 13.032 118.746 14.701 119.515 17.219 119.515 20.558 119.515 20.796 119.515 21.088 119.488 21.406 119.488 21.724 119.462 21.989 119.435 22.254H106.477C106.609 23.844 107.166 25.063 108.146 25.911 109.127 26.785 110.584 27.209 112.439 27.209 113.552 27.209 114.559 27.103 115.46 26.918 116.388 26.706 117.103 26.494 117.633 26.282L118.243 29.992C118.004 30.124 117.66 30.257 117.209 30.389 116.759 30.522 116.282 30.654 115.699 30.76 115.142 30.866 114.533 30.972 113.87 31.052 113.208 31.131 112.545 31.158 111.883 31.158 110.16 31.158 108.65 30.893 107.378 30.389 106.106 29.886 105.046 29.17 104.224 28.243 103.403 27.315 102.793 26.255 102.369 25.01 101.972 23.791 101.76 22.439 101.76 20.955ZM114.957 18.941C114.957 18.305 114.877 17.722 114.692 17.166 114.506 16.609 114.268 16.106 113.923 15.708 113.579 15.284 113.181 14.966 112.678 14.728 112.201 14.489 111.618 14.383 110.929 14.383 110.24 14.383 109.604 14.516 109.074 14.781 108.544 15.046 108.093 15.39 107.749 15.814 107.378 16.238 107.113 16.742 106.901 17.272 106.689 17.828 106.556 18.385 106.477 18.968H114.957V18.941ZM123.569 11.681C124.444 11.442 125.583 11.204 126.988 10.965 128.392 10.727 129.956 10.621 131.652 10.621 133.268 10.621 134.593 10.833 135.68 11.283 136.766 11.734 137.614 12.343 138.25 13.138 138.886 13.933 139.337 14.887 139.602 16 139.867 17.113 139.999 18.332 139.999 19.657V30.708H135.441V20.373C135.441 19.313 135.362 18.412 135.229 17.696 135.097 16.954 134.858 16.345 134.54 15.894 134.222 15.444 133.798 15.099 133.268 14.887 132.738 14.675 132.076 14.569 131.307 14.569 130.724 14.569 130.141 14.596 129.505 14.675 128.869 14.755 128.419 14.808 128.127 14.861V30.708H123.569V11.681ZM32.622 24.321C33.364 24.321 34.079 24.454 34.742 24.692 35.802 23.473 36.358 22.148 36.358 20.77 36.358 18.518 34.821 16.345 32.065 14.649 29.097 12.847 25.122 11.84 20.909 11.84 16.669 11.84 12.694 12.847 9.752 14.649 6.97 16.345 5.459 18.518 5.459 20.77 5.459 22.148 6.016 23.473 7.076 24.692 7.738 24.454 8.454 24.321 9.196 24.321 10.865 24.321 12.429 24.957 13.595 26.15 14.416 26.971 14.973 27.978 15.238 29.091 17.013 29.515 18.921 29.727 20.909 29.727 22.896 29.727 24.778 29.515 26.58 29.091 26.845 28.005 27.401 26.971 28.223 26.15 29.389 24.984 30.952 24.321 32.622 24.321ZM20.909 19.127C19.001 19.127 17.437 17.564 17.437 15.656H24.38C24.38 17.564 22.817 19.127 20.909 19.127ZM8.878 13.032C9.222 12.82 9.567 12.635 9.911 12.449H9.885C9.01 11.787 7.977 11.469 6.943 11.469 5.459 11.469 4.002 12.131 3.048 13.403L2.65 13.96 5.406 16.027C6.281 14.914 7.447 13.907 8.878 13.032ZM5.459 25.567C4.532 24.374 3.949 23.076 3.79 21.724 3.737 21.406 3.71 21.088 3.71 20.77 3.71 19.18 4.24 17.67 5.221 16.292H4.876C2.173 16.292 0 18.491 0 21.168V21.857H3.631C2.677 22.652 2.067 23.738 1.908 24.957 1.723 26.256 2.067 27.528 2.862 28.561L3.154 28.959C3.419 27.899 3.975 26.945 4.77 26.15 4.982 25.938 5.221 25.752 5.459 25.567ZM36.385 16.027 39.141 13.96 38.743 13.403C37.789 12.131 36.332 11.469 34.848 11.469 33.814 11.469 32.807 11.787 31.906 12.449H31.88C32.224 12.635 32.595 12.82 32.913 13.032 34.371 13.907 35.537 14.914 36.385 16.027ZM41.818 21.168C41.818 18.465 39.618 16.292 36.942 16.292H36.571C37.578 17.67 38.081 19.207 38.081 20.77 38.081 21.088 38.055 21.406 38.002 21.724 37.816 23.076 37.233 24.374 36.332 25.567 36.571 25.752 36.809 25.938 37.021 26.15 37.816 26.945 38.373 27.899 38.638 28.959L38.929 28.561C39.724 27.528 40.069 26.229 39.883 24.957 39.724 23.738 39.115 22.625 38.161 21.857H41.791V21.168H41.818ZM15.026 10.727C17.729 10.727 19.902 8.527 19.902 5.851 19.902 3.148 17.702.975 15.026.975 12.323.975 10.15 3.174 10.15 5.851 10.15 8.527 12.349 10.727 15.026 10.727ZM15.026 3.174C14.708 3.519 14.496 3.996 14.496 4.526 14.496 5.559 15.344 6.407 16.377 6.407 16.907 6.407 17.384 6.195 17.729 5.851V5.877C17.729 7.361 16.536 8.554 15.052 8.554 13.568 8.554 12.376 7.361 12.376 5.877 12.349 4.367 13.542 3.174 15.026 3.174ZM26.765 10.727C29.468 10.727 31.641 8.527 31.641 5.851 31.641 3.148 29.441.975 26.765.975 24.062.975 21.889 3.174 21.889 5.851 21.889 8.527 24.088 10.727 26.765 10.727ZM26.765 3.174C26.791 3.174 26.791 3.174 26.765 3.174 26.447 3.519 26.235 3.996 26.235 4.526 26.235 5.559 27.083 6.407 28.116 6.407 28.646 6.407 29.123 6.195 29.468 5.851V5.877C29.468 7.361 28.275 8.554 26.791 8.554 25.307 8.554 24.115 7.361 24.115 5.877 24.088 4.367 25.307 3.174 26.765 3.174Z"/><path fill="#fff" d="M9.196 25.673C6.493 25.673 4.32 27.846 4.32 30.549 4.32 33.252 6.493 35.425 9.196 35.425 9.752 35.425 10.309 35.319 10.812 35.133 10.759 35.08 10.706 35.054 10.68 35.001 9.275 33.596 8.772 31.768 9.62 30.946 10.441 30.125 12.27 30.602 13.674 32.006 13.727 32.059 13.754 32.112 13.807 32.139 13.992 31.635 14.098 31.105 14.098 30.522 14.072 27.872 11.872 25.673 9.196 25.673ZM32.621 25.673C29.918 25.673 27.745 27.846 27.745 30.549 27.745 31.105 27.851 31.662 28.037 32.165 28.09 32.112 28.116 32.059 28.169 32.033 29.574 30.628 31.402 30.125 32.224 30.973 33.045 31.794 32.568 33.623 31.164 35.027 31.111 35.08 31.084 35.107 31.031 35.16 31.535 35.345 32.065 35.451 32.648 35.451 35.351 35.451 37.524 33.278 37.524 30.575 37.497 27.872 35.324 25.673 32.621 25.673Z"/></svg>